<?xml version="1.0" encoding="utf-8"?>
<!-- Generator: Adobe Illustrator 19.0.1, SVG Export Plug-In . SVG Version: 6.00 Build 0)  -->
<svg version="1.1" id="Layer_1" xmlns="http://www.w3.org/2000/svg" xmlns:xlink="http://www.w3.org/1999/xlink" x="0px" y="0px"
	 viewBox="0 0 160.7 40" enable-background="new 0 0 160.7 40" xml:space="preserve">
<g>
	<g>
		<path fill="#FFFFFF" d="M56.2,23.4l-1.3,3.2c-0.2,0.5-0.6,0.8-1.2,0.8c-0.7,0-1.2-0.6-1.2-1.2c0-0.1,0-0.3,0.1-0.5l5.1-12.5
			c0.1-0.3,0.5-0.8,1.2-0.8c0.7,0,1,0.5,1.2,0.8l5.1,12.5c0.1,0.2,0.1,0.3,0.1,0.5c0,0.7-0.6,1.2-1.2,1.2c-0.6,0-1-0.4-1.2-0.8
			l-1.3-3.2H56.2z M58.9,16.5l-1.8,4.6h3.6L58.9,16.5z"/>
		<path fill="#FFFFFF" d="M72.8,24.3l-3.4-6.1v7.9c0,0.7-0.6,1.2-1.2,1.2s-1.2-0.6-1.2-1.2V13.6c0-0.7,0.6-1.2,1.2-1.2
			c0.5,0,0.9,0.3,1.1,0.7l4.6,8.3l4.6-8.3c0.2-0.4,0.6-0.7,1.1-0.7c0.7,0,1.2,0.6,1.2,1.2v12.5c0,0.7-0.6,1.2-1.2,1.2
			c-0.7,0-1.2-0.6-1.2-1.2v-7.9l-3.4,6.1c-0.2,0.4-0.6,0.6-1.1,0.6S73,24.7,72.8,24.3z"/>
		<path fill="#FFFFFF" d="M86,21.5v4.6c0,0.7-0.6,1.3-1.3,1.3s-1.3-0.6-1.3-1.3V13.8c0-0.7,0.6-1.3,1.3-1.3h4.2
			c2.6,0,4.6,1.4,4.6,4.5c0,3-2,4.5-4.6,4.5H86z M86,14.8v4.4h2.7c1.4,0,2.2-0.8,2.2-2.2c0-1.4-0.8-2.2-2.2-2.2H86z"/>
		<path fill="#FFFFFF" d="M103.2,24.9c0.7,0,1.2,0.5,1.2,1.2c0,0.7-0.5,1.2-1.2,1.2h-6.5c-0.7,0-1.2-0.5-1.2-1.2V13.6
			c0-0.7,0.6-1.3,1.3-1.3s1.3,0.6,1.3,1.3v11.2H103.2z"/>
		<path fill="#FFFFFF" d="M108.8,26.1c0,0.7-0.6,1.3-1.3,1.3s-1.3-0.6-1.3-1.3V13.6c0-0.7,0.6-1.3,1.3-1.3s1.3,0.6,1.3,1.3V26.1z"/>
		<path fill="#FFFFFF" d="M117.5,14.8v11.4c0,0.7-0.6,1.3-1.3,1.3s-1.3-0.6-1.3-1.3V14.8h-3.3c-0.6,0-1.1-0.5-1.1-1.1
			c0-0.6,0.5-1.1,1.1-1.1h9.2c0.6,0,1.1,0.5,1.1,1.1c0,0.6-0.5,1.1-1.1,1.1H117.5z"/>
		<path fill="#FFFFFF" d="M123.7,22.4v-8.8c0-0.7,0.6-1.3,1.3-1.3s1.3,0.6,1.3,1.3v8.8c0,1.3,0.5,2.9,3,2.9c2.5,0,3-1.5,3-2.9v-8.8
			c0-0.7,0.6-1.3,1.3-1.3s1.3,0.6,1.3,1.3v8.8c0,2.5-1.1,5.1-5.5,5.1C124.8,27.5,123.7,24.9,123.7,22.4z"/>
		<path fill="#FFFFFF" d="M141.4,12.5c4.3,0,7.1,2,7.1,7.4s-2.7,7.3-7.1,7.3h-2.9c-0.7,0-1.3-0.6-1.3-1.3V13.8
			c0-0.7,0.6-1.3,1.3-1.3H141.4z M139.8,25h1.7c2.8,0,4.5-1.3,4.5-5.1s-1.7-5.1-4.5-5.1h-1.7V25z"/>
		<path fill="#FFFFFF" d="M153.1,18.7h4.1c0.6,0,1.1,0.5,1.1,1.1s-0.5,1.1-1.1,1.1h-4.1v4h5.8c0.6,0,1.1,0.5,1.1,1.1
			s-0.5,1.1-1.1,1.1h-7c-0.7,0-1.3-0.6-1.3-1.3V13.8c0-0.7,0.6-1.3,1.3-1.3h6.8c0.6,0,1.1,0.5,1.1,1.1s-0.5,1.1-1.1,1.1h-5.5V18.7z"
			/>
	</g>
	<g>
		<path fill="none" d="M18.4,3.4c-2.1,0.1-4.9,7.4-6.8,14.8l2,0c3.4,0,6.8,0.1,10.2,0.1c-0.5-1.7-1.4-5.5-2.5-8.8
			C19.3,3.5,18.4,3.4,18.4,3.4z"/>
		<g>
			<path fill="none" d="M18.4,3.3c-2.1,0.1-4.9,7.4-6.8,14.8l2,0c3.4,0,6.8,0.1,10.2,0.1c-0.5-1.7-1.4-5.5-2.5-8.8
				C19.3,3.4,18.4,3.4,18.4,3.3z"/>
			<polygon fill="#FFFFFF" points="6,30.1 6,30.1 6,30.1 6,30.1 			"/>
			<path fill="#FFFFFF" d="M43.5,19L43.5,19L43.2,19c-5.4-0.4-10.9-0.5-15.6-0.6l-0.1-0.3C25.3,9.7,22.2,0,18.3,0
				c-3.7,0-7,6.1-9.9,18.1c-2.2,0-4.2-0.1-6-0.1h0c-0.6,0-0.8,0-0.9,0C0.6,18.2,0,18.9,0,19.8c0,1,0.7,1.7,1.7,1.8l0,0h5.9
				c-0.6,2.5-1,5-1.4,7.4L6,29.7L6,30.1c0,0,0,0,0,0c0,0,0,0,0,0c0,0.6,0.5,1.1,1.1,1.1c0.6,0,1.1-0.4,1.1-1c0,0,0,0,0,0
				c0.9-3.2,2.3-7.6,2.6-8.4c0,0,0-0.1,0-0.1h13.9l0,0.1c1,3.9,2.1,7.9,3.5,11.7c0.7,1.9,2.4,6.5,5.2,6.5l0,0c4.3,0,6-7.2,7.2-12
				c0.3-1.1,0.5-2,0.7-2.6l0,0c0,0,0-0.1,0-0.1c0-0.2-0.2-0.4-0.4-0.4c-0.2,0-0.3,0.1-0.4,0.3l0,0c-0.4,1.1-0.8,2.1-1.1,3
				c-2,5.7-2.9,8.3-4.9,8.3l0,0l0,0c0,0,0,0-0.1,0c-2.5,0-4.5-8.7-5.5-12.8c-0.2-0.8-0.3-1.4-0.5-2h14.7l0.4,0l0-0.1
				c0.5-0.2,0.9-0.7,0.9-1.3C44.5,19.7,44.1,19.2,43.5,19z M13.6,18.2l-2,0c1.9-7.4,4.6-14.7,6.8-14.8c0,0,0.9,0.1,2.9,6.2
				c1.1,3.3,2.1,7,2.5,8.8C20.4,18.2,16.9,18.2,13.6,18.2z"/>
		</g>
		<path fill="#FFFFFF" d="M10.8,21.7c0,0-2.5,7.9-2.7,8.7c-0.2,0.8-0.8-1-0.8-1S8,26.8,8,26.6s0.4-2.6,0.4-2.7
			c0-0.1,0.4-2.3,0.4-2.3l1.7-1"/>
		<path fill="#FFFFFF" d="M17.4,3.8c0,0,0.9-0.8,1.6,0.2c0.7,1,0.8-0.6,0.8-0.6c0,0-1.2-1.1-1.3-1.1c0,0-1.5,0.3-1.5,0.3
			c0,0-0.4,0.9-0.4,0.9"/>
		<path fill="#FFFFFF" d="M10.8,21.8l-2.7,8.6c0,0-0.7-0.6-0.7-0.7c0-0.1,1.2-9,1.2-9.1c0-0.1,2.5,0.6,2.5,0.6L10.8,21.8z"/>
		<circle fill="#FFFFFF" cx="43.5" cy="20.3" r="1.3"/>
	</g>
</g>
</svg>
